PathFileType	4	(X/Y/Z)	C:/Users/beibeiliu/ov580/test_trc/User3\sequence.11_training_dense_right.trc
DataRate	CameraRate	NumFrames	NumMarkers	Units	OrigDataRate	OrigDataStartFrame	OrigNumFrames
120	120	22	19	mm	120	123	196
Frame#	Time	ThumbCMC			ThumbMCP			ThumbIP			ThumbTip			IndexMCP			IndexPIP			IndexTip			MiddleMCP			MiddlePIP			MiddleTip			RingMCP			RingPIP			RingTip			PinkyMCP			PinkyPIP			PinkyTip			BackHand1			BackHand2			BackHand3	
		X0	Y0	Z0	X1	Y1	Z1	X2	Y2	Z2	X3	Y3	Z3	X4	Y4	Z4	X5	Y5	Z5	X6	Y6	Z6	X7	Y7	Z7	X8	Y8	Z8	X9	Y9	Z9	X10	Y10	Z10	X11	Y11	Z11	X12	Y12	Z12	X13	Y13	Z13	X14	Y14	Z14	X15	Y15	Z15	X16	Y16	Z16	X17	Y17	Z17	X18	Y18	Z18	
122	1.01667	131.136	-27.9931	47.6132	108.057	-33.7912	34.7886	87.8193	-42.7788	16.4377	70.5275	-46.5079	3.82784	119.6	-76.6064	-13.5873	102.817	-89.8539	-29.2589	91.6629	-100.124	-41.489	149.528	-88.5748	-16.5585	143.213	-106.325	-35.4137	133.451	-124.2	-62.1634	170.811	-100.149	-6.23295	169.193	-114.741	-24.3435	169.228	-131.894	-44.0352	184.003	-106.794	13.6347	188.494	-120.262	6.48812	200.041	-140.767	-6.29854	183.698	-62.6925	22.2572	195.564	-42.3297	47.2736	159.618	-32.603	29.0514	
123	1.025	135.199	-22.3483	50.4867	109.119	-26.5323	33.2023	90.4113	-32.6275	19.26	68.3726	-29.9357	8.54619	115.201	-69.8351	-11.0917	97.3396	-79.504	-24.9015	82.4173	-95.0598	-43.1117	142.304	-89.4615	-15.377	130.554	-104.79	-35.2425	119.069	-120.519	-57.5652	160.766	-101.028	-6.13143	156.494	-115.237	-22.1399	154.326	-132.936	-38.9002	177.942	-108.146	19.8847	179.621	-129.035	8.15707	185.459	-144.646	-3.22496	181.194	-65.8068	25.013	194.774	-45.7981	45.3922	160.999	-34.1792	30.1424	
124	1.03333	138.39	-21.0287	49.6575	114.932	-19.8043	35.8464	89.9123	-21.0134	18.7923	71.8642	-20.6326	7.86801	109.399	-64.0766	-11.1475	91.1323	-72.101	-24.3562	74.2189	-80.8813	-39.4448	130.488	-84.9009	-16.7434	122.509	-99.7693	-30.6439	107.62	-117.211	-55.4311	151.34	-101.23	-1.6462	146.57	-115.31	-18.4793	137.572	-131.494	-38.1992	166.808	-112.225	19.8132	164.775	-130.086	10.3938	165.069	-145.741	-0.869105	172.869	-67.2704	25.6126	190.494	-47.5265	44.9496	159.835	-32.9721	29.0106	
125	1.04167	141.067	-15.4839	49.2115	114.841	-11.8719	33.5031	93.0413	-10.6235	19.1693	74.2863	-6.18975	5.96189	107.786	-56.4299	-8.0299	87.3541	-61.0257	-22.9932	68.0886	-71.6169	-40.5391	126.076	-82.9394	-12.5294	108.804	-93.2149	-33.6857	94.5162	-112.059	-54.7846	138.191	-96.8798	-1.38331	132.356	-115.581	-17.9777	122.35	-127.396	-33.435	151.331	-106.878	22.8457	149.509	-123.845	13.8398	147.546	-143.596	2.54538	170.22	-70.4486	24.7477	187.631	-55.1572	44.437	158.878	-34.2442	28.0035	
126	1.05	142.252	-13.7243	47.631	119.401	-7.18973	33.6129	96.5297	-0.517416	16.0433	80.1528	3.16463	6.80288	104.693	-48.3832	-8.46893	83.9434	-56.766	-26.3976	67.4896	-64.7308	-41.2986	117.982	-79.7589	-13.6168	102.105	-90.0143	-30.9138	85.7877	-104.544	-50.5391	129.564	-97.2388	0.435442	119.357	-108.572	-14.09	108.379	-126.352	-31.6329	141.434	-106.571	26.0766	136.008	-125.77	18.2141	129.978	-142.132	4.82864	162.087	-68.7646	24.8871	185.477	-60.0482	44.6533	159.406	-34.7533	25.1711	
127	1.05833	146.368	-9.98753	44.8491	123.107	-5.17783	29.5824	103.387	6.46433	15.2766	87.7838	14.8055	2.35535	103.973	-46.5392	-10.1379	82.677	-44.4491	-28.6159	63.7239	-50.7643	-44.4758	111.899	-70.9166	-12.5376	93.9094	-84.0029	-30.2541	74.9231	-94.2958	-52.0457	119.292	-88.7907	1.64302	107.214	-105.719	-14.5851	94.8374	-119.079	-27.6109	129.592	-107.029	25.5201	118.916	-122.776	18.3997	113.657	-139.887	9.15683	155.863	-71.9141	27.0346	180.954	-59.0181	47.3883	161.165	-36.7035	29.3414	
128	1.06667	152.232	-4.83433	43.3179	131.627	1.79164	29.653	111.701	13.0457	10.1982	99.5837	27.6874	-4.30796	104.146	-37.1641	-12.9283	86.3161	-38.9167	-27.3437	66.6922	-41.0415	-43.9569	108.722	-64.769	-10.292	88.6107	-71.8582	-31.8835	67.4762	-81.8493	-53.4059	111.295	-83.6777	0.385163	97.5557	-96.3739	-13.9783	80.937	-108.259	-29.8846	117.812	-102.105	28.4005	107.318	-111.71	21.081	96.3039	-126.817	12.2244	149.398	-71.2531	27.4379	176.68	-65.9356	45.6125	161.664	-36.8156	28.7362	
129	1.075	155.036	-7.96983	40.0048	138.378	4.58954	22.1505	123.969	20.5456	3.0806	115.664	33.8408	-7.62103	104.465	-34.5292	-17.1021	89.3378	-28.5889	-32.3271	70.536	-30.93	-49.1331	104.399	-59.2767	-16.3836	85.5004	-65.963	-32.7311	64.2921	-68.4005	-56.4839	106.823	-77.2815	1.25485	93.0207	-87.357	-11.374	72.8083	-99.1814	-29.9557	110.348	-90.0488	27.8105	94.2309	-108.432	22.4869	82.7515	-122.976	14.6763	147.399	-68.8306	27.2435	173.117	-64.2217	47.4593	162.548	-36.5662	24.5788	
130	1.08333	163.019	-9.69371	38.6301	148.208	7.24511	15.7902	134.657	19.5874	-4.301	128.589	33.8393	-15.6875	111.668	-29.4965	-19.2016	96.0785	-21.8664	-36.9459	78.7634	-25.8848	-54.6153	103.13	-59.0372	-17.3151	84.6263	-58.9162	-36.2561	66.9047	-61.2922	-56.5967	103.458	-74.6074	-0.25079	87.4546	-81.0589	-16.1697	69.1316	-89.4213	-34.1818	102.614	-86.0011	24.0584	89.2832	-97.9502	22.7386	74.449	-113.184	11.5183	146.356	-67.6628	24.4174	168.663	-71.3123	48.0162	162.842	-40.3489	23.9142	
131	1.09167	167.907	-12.7804	33.43	159.561	4.17423	16.0923	149.22	21.0817	-10.1894	145.52	32.8081	-21.4326	122.109	-25.1854	-22.8492	107.256	-21.1606	-42.5463	92.1681	-17.455	-62.7021	110.17	-54.7822	-17.6307	89.1296	-55.3325	-41.2408	70.4841	-60.4265	-62.8308	105.305	-70.626	-1.26617	88.7365	-76.3116	-18.7486	68.213	-84.2163	-36.4549	101.948	-82.6948	22.9548	82.5157	-91.6786	17.3634	69.7977	-104.498	11.1088	147.591	-67.7461	25.438	166.889	-73.1445	42.7126	165.494	-43.8968	20.1449	
132	1.1	178.832	-11.9707	32.3262	170.158	2.32031	10.5228	162.763	16.931	-17.0894	157.223	27.5185	-30.2405	127.798	-30.8243	-26.7357	115.537	-25.0788	-48.5348	104.47	-19.0461	-75.1112	118.051	-52.7094	-24.9725	97.5915	-55.7922	-46.7527	81.4232	-58.4015	-67.5266	107.555	-69.3624	-6.95135	93.7542	-73.678	-22.212	74.0017	-79.1243	-42.7296	103.987	-78.8511	21.4433	82.1122	-86.927	11.8076	67.0144	-95.0337	5.25635	149.253	-72.3201	23.4324	167.601	-75.9134	47.0446	174.19	-46.5558	20.5956	
133	1.10833	184.948	-15.4838	28.7974	173.849	-3.81234	3.39576	171.032	9.79965	-18.1987	169.874	23.0119	-36.5401	138.429	-30.2278	-35.3906	126.988	-25.1821	-56.862	114.623	-26.7009	-80.5651	120.459	-58.0572	-28.8774	109.078	-55.0262	-49.7504	90.8532	-61.4705	-74.5785	112.02	-70.8971	-9.09795	96.667	-77.1556	-24.8173	79.3325	-84.0268	-43.0348	102.847	-80.2795	17.704	83.3181	-87.5892	10.2152	70.851	-92.8235	1.47602	149.477	-71.5789	21.1756	169.216	-74.4693	40.3642	176.518	-47.9613	17.4266	
134	1.11667	186.937	-22.2975	27.2115	181.095	-8.04037	3.3628	183.777	7.78791	-25.5567	184.572	18.4468	-42.6942	145.838	-38.4433	-37.9662	140.397	-30.5185	-61.0487	129.503	-30.6856	-87.2326	131.016	-60.5918	-34.8683	116.408	-63.1919	-56.4136	99.4202	-69.424	-84.5774	118.779	-72.2167	-15.8985	104.601	-77.9669	-30.4064	88.0734	-85.5434	-54.9222	109.953	-78.8311	13.1108	88.626	-86.4015	2.21315	75.1739	-96.2713	-4.91776	156.357	-74.4368	19.5351	172.207	-76.8644	45.0403	180.378	-55.8255	18.3728	
135	1.125	192.668	-25.0442	21.6014	191.205	-10.0972	-1.38118	192.921	2.98181	-28.8414	193.442	12.3613	-44.9167	157.241	-41.1685	-41.3637	148.079	-40.5192	-65.4033	141.388	-40.8259	-89.6221	136.545	-68.1453	-39.1853	126.306	-70.6793	-60.9211	115.492	-75.7675	-86.2896	123.515	-77.643	-22.4954	111.005	-84.2784	-39.1137	98.3931	-92.2154	-55.5699	113.312	-81.7912	7.55836	93.7647	-92.7874	-1.28646	80.7268	-103.807	-9.28318	155.92	-77.6966	15.4693	175.715	-81.2209	42.1541	182.397	-57.6481	13.139	
136	1.13333	198.283	-26.9881	22.104	193.633	-15.8751	-3.93394	197.199	-2.97922	-28.9632	201.941	7.73859	-47.8781	162.711	-50.3011	-42.9839	162.203	-44.2228	-69.0156	153.535	-47.3305	-95.9544	145.837	-73.1699	-41.2601	139.483	-74.8734	-63.7703	127.508	-83.2544	-90.6964	131.863	-83.3744	-21.4606	120.754	-90.2634	-39.8377	109.764	-101.668	-62.1315	120.257	-87.0603	3.08201	100.999	-97.2105	-5.37888	88.9031	-108.762	-16.8199	161.733	-82.4017	13.0183	176.059	-84.0665	43.2883	188.543	-62.8488	11.9976	
137	1.14167	203.222	-28.0191	19.4058	200.991	-17.4213	-7.67123	207.775	-5.30645	-34.2488	208.632	5.17581	-48.8117	172.238	-54.5318	-49.5287	171.142	-50.7507	-73.0723	168.672	-52.7096	-97.6471	155.142	-77.7266	-43.6715	149.538	-83.165	-71.7202	141.129	-89.9828	-96.5523	140.194	-89.5705	-27.1217	131.843	-97.6761	-47.7159	121.901	-108.004	-68.852	125.265	-91.8758	-2.75218	110.637	-102.084	-9.66077	93.5521	-116.818	-17.2921	166.342	-86.7178	14.5636	183.91	-84.4491	37.3799	195.203	-62.2943	9.55599	
138	1.15	207.939	-29.7416	16.8747	208.717	-18.6883	-7.85472	214.932	-6.95339	-34.7884	221.11	4.61809	-50.841	180.195	-59.4854	-51.333	181.712	-57.1126	-77.5579	178.852	-61.1765	-99.3222	165.517	-83.4117	-46.7616	159.414	-89.9388	-73.5487	152.041	-100.19	-94.9533	149.791	-91.126	-27.0221	140.653	-105.148	-47.7326	134.592	-114.411	-70.7006	133.387	-95.7723	-5.11712	119.432	-106.684	-13.9861	105.069	-122.924	-22.2874	174.492	-87.2365	9.26588	185.687	-87.8148	37.5801	200.415	-64.4365	12.5532	
139	1.15833	208.69	-32.0912	18.0473	209.514	-22.4298	-10.0099	219.409	-8.70347	-35.0491	222.739	0.226069	-50.8058	190.858	-59.451	-52.2339	190.677	-60.2271	-78.7899	190.482	-64.4277	-98.7305	175.143	-86.1059	-46.6435	169.522	-95.6037	-73.4077	163.5	-106.896	-96.9436	158.894	-92.7243	-29.9023	151.28	-106.766	-47.1236	144.482	-122.074	-71.5672	138.798	-99.6713	-5.20864	128.886	-109.151	-15.0496	115.557	-127.308	-25.4256	179.839	-87.2564	8.99865	191.367	-87.8643	38.1534	204.853	-66.7217	12.1705	
140	1.16667	211.625	-32.6306	15.5985	216.977	-18.9843	-8.38566	221.816	-8.52111	-31.7031	227.785	-0.168036	-50.981	196.339	-61.0349	-49.4118	196.248	-65.959	-78.5269	201.121	-68.1428	-100.997	183.093	-86.8241	-44.2335	180.904	-97.7146	-72.8336	175.907	-112.274	-96.685	164.914	-99.9938	-29.531	162.689	-109.896	-49.7151	155.93	-128.037	-70.9691	147.989	-99.2263	-4.91187	137.961	-112.321	-16.2025	126.556	-133.417	-29.7053	182.147	-89.3144	14.0052	193.447	-86.4555	37.2446	211.078	-63.9704	11.0627	
141	1.175	214.92	-26.2921	18.6223	214.867	-17.8138	-10.1348	224.452	-4.99274	-34.3208	225.927	3.89304	-50.2763	203.848	-59.9588	-53.0341	203.341	-65.4865	-75.7981	206.208	-69.6589	-99.5768	189.633	-89.0746	-43.6278	192.601	-96.6881	-71.8973	190.956	-110.829	-96.9531	176.795	-98.4524	-33.9062	173.119	-114.125	-51.1927	172.907	-125.902	-70.1108	155.11	-103.802	-4.62669	145.702	-120.037	-19.4604	137.918	-136.873	-26.9792	191.69	-87.2713	9.00203	199.213	-87.2654	40.4208	212.142	-64.9163	12.934	
142	1.18333	212.86	-23.8703	14.1431	215.2	-11.4633	-7.90504	221.031	-0.319485	-34.2234	222.268	9.73139	-48.1949	207.642	-59.2456	-51.6454	211.294	-59.1567	-76.1884	216.076	-63.42	-99.6847	200.18	-87.8259	-46.6142	201.406	-97.5499	-69.3439	204.551	-111.153	-101.644	186.607	-101.243	-34.5907	187.918	-110.438	-50.2774	188.099	-129.953	-74.8911	165.345	-107.079	-9.26238	160.036	-120.843	-21.3795	154.141	-143.694	-28.7799	197.418	-84.4881	11.9644	203.494	-87.1201	36.3039	218.812	-58.9022	11.01	
143	1.19167	209.608	-22.9171	14.401	210.843	-8.72655	-6.77754	217.269	5.52319	-34.3099	221.674	16.3333	-50.3081	211.039	-53.2437	-50.2769	216.563	-54.3818	-79.9206	219.871	-61.022	-101.71	206.417	-83.5049	-45.5817	210.22	-94.1548	-70.6511	215.738	-105.314	-102.22	193.749	-96.0232	-31.3955	197.048	-114.779	-54.3985	200.054	-126.253	-74.3178	173.522	-105.643	-9.23998	168.835	-122.636	-21.5475	170.082	-141.718	-36.0313	204.199	-83.7869	5.73573	208.313	-78.8607	39.65	217.502	-54.5476	11.201	
